<mxfile host="app.diagrams.net" agent="Mozilla/5.0 (Android 14; Mobile; rv:131.0) Gecko/131.0 Firefox/131.0" version="24.7.17">
  <diagram name="Page-1" id="tsiPMK6hwDityt-pmK6l">
    <mxGraphModel>
      <root>
        <mxCell id="0" />
        <mxCell id="1" parent="0" />
        <mxCell id="2" value="RealTimeSync" style="whiteSpace=wrap;strokeWidth=2;" vertex="1" parent="1">
          <mxGeometry x="2026" y="535" width="186" height="189" as="geometry" />
        </mxCell>
        <mxCell id="3" value="QRCodeScan" style="whiteSpace=wrap;strokeWidth=2;" vertex="1" parent="1">
          <mxGeometry x="1585" y="8" width="223" height="219" as="geometry" />
        </mxCell>
        <mxCell id="4" value="MapIntegration" style="whiteSpace=wrap;strokeWidth=2;" vertex="1" parent="1">
          <mxGeometry x="533" y="246" width="1679" height="268" as="geometry" />
        </mxCell>
        <mxCell id="5" value="Start" style="whiteSpace=wrap;strokeWidth=2;" vertex="1" parent="1">
          <mxGeometry x="8" y="438" width="94" height="49" as="geometry" />
        </mxCell>
        <mxCell id="6" value="Check Permissions" style="rhombus;strokeWidth=2;whiteSpace=wrap;" vertex="1" parent="1">
          <mxGeometry x="152" y="369" width="186" height="186" as="geometry" />
        </mxCell>
        <mxCell id="7" value="Initialize Map" style="rhombus;strokeWidth=2;whiteSpace=wrap;" vertex="1" parent="1">
          <mxGeometry x="558" y="290" width="144" height="144" as="geometry" />
        </mxCell>
        <mxCell id="8" value="Stop" style="whiteSpace=wrap;strokeWidth=2;" vertex="1" parent="1">
          <mxGeometry x="583" y="550" width="93" height="49" as="geometry" />
        </mxCell>
        <mxCell id="9" value="Fetch Map Data" style="rhombus;strokeWidth=2;whiteSpace=wrap;" vertex="1" parent="1">
          <mxGeometry x="752" y="282" width="162" height="162" as="geometry" />
        </mxCell>
        <mxCell id="10" value="Display Map" style="rhombus;strokeWidth=2;whiteSpace=wrap;" vertex="1" parent="1">
          <mxGeometry x="1057" y="294" width="137" height="137" as="geometry" />
        </mxCell>
        <mxCell id="11" value="Check QR Code" style="rhombus;strokeWidth=2;whiteSpace=wrap;" vertex="1" parent="1">
          <mxGeometry x="1244" y="283" width="159" height="159" as="geometry" />
        </mxCell>
        <mxCell id="12" value="Synchronize Data" style="rhombus;strokeWidth=2;whiteSpace=wrap;" vertex="1" parent="1">
          <mxGeometry x="1610" y="307" width="173" height="173" as="geometry" />
        </mxCell>
        <mxCell id="13" value="Update Map" style="rhombus;strokeWidth=2;whiteSpace=wrap;" vertex="1" parent="1">
          <mxGeometry x="2051" y="310" width="136" height="136" as="geometry" />
        </mxCell>
        <mxCell id="14" value="Continue" style="whiteSpace=wrap;strokeWidth=2;" vertex="1" parent="1">
          <mxGeometry x="1634" y="43" width="124" height="49" as="geometry" />
        </mxCell>
        <mxCell id="15" value="Error" style="whiteSpace=wrap;strokeWidth=2;" vertex="1" parent="1">
          <mxGeometry x="1649" y="142" width="94" height="49" as="geometry" />
        </mxCell>
        <mxCell id="16" value="Update UI" style="rhombus;strokeWidth=2;whiteSpace=wrap;" vertex="1" parent="1">
          <mxGeometry x="2059" y="570" width="119" height="119" as="geometry" />
        </mxCell>
        <mxCell id="17" value="" style="curved=1;startArrow=none;endArrow=block;exitX=1.01;exitY=0.49;entryX=0;entryY=0.5;" edge="1" parent="1" source="5" target="6">
          <mxGeometry relative="1" as="geometry">
            <Array as="points" />
          </mxGeometry>
        </mxCell>
        <mxCell id="18" value="Permission Granted" style="curved=1;startArrow=none;endArrow=block;exitX=1;exitY=0.24;entryX=0;entryY=0.5;" edge="1" parent="1" source="6" target="7">
          <mxGeometry relative="1" as="geometry">
            <Array as="points">
              <mxPoint x="436" y="362" />
            </Array>
          </mxGeometry>
        </mxCell>
        <mxCell id="19" value="Permission Denied" style="curved=1;startArrow=none;endArrow=block;exitX=1;exitY=0.8;entryX=0;entryY=0.5;" edge="1" parent="1" source="6" target="8">
          <mxGeometry relative="1" as="geometry">
            <Array as="points">
              <mxPoint x="436" y="574" />
            </Array>
          </mxGeometry>
        </mxCell>
        <mxCell id="20" value="" style="curved=1;startArrow=none;endArrow=block;exitX=1;exitY=0.5;entryX=0;entryY=0.5;" edge="1" parent="1" source="7" target="9">
          <mxGeometry relative="1" as="geometry">
            <Array as="points" />
          </mxGeometry>
        </mxCell>
        <mxCell id="21" value="Data Loaded" style="curved=1;startArrow=none;endArrow=block;exitX=1;exitY=0.5;entryX=0;entryY=0.5;" edge="1" parent="1" source="9" target="10">
          <mxGeometry relative="1" as="geometry">
            <Array as="points" />
          </mxGeometry>
        </mxCell>
        <mxCell id="22" value="" style="curved=1;startArrow=none;endArrow=block;exitX=1;exitY=0.5;entryX=0;entryY=0.5;" edge="1" parent="1" source="10" target="11">
          <mxGeometry relative="1" as="geometry">
            <Array as="points" />
          </mxGeometry>
        </mxCell>
        <mxCell id="23" value="QR Code Scanned" style="curved=1;startArrow=none;endArrow=block;exitX=1;exitY=0.59;entryX=0;entryY=0.5;" edge="1" parent="1" source="11" target="12">
          <mxGeometry relative="1" as="geometry">
            <Array as="points">
              <mxPoint x="1494" y="393" />
            </Array>
          </mxGeometry>
        </mxCell>
        <mxCell id="24" value="" style="curved=1;startArrow=none;endArrow=block;exitX=1;exitY=0.43;entryX=0;entryY=0.5;" edge="1" parent="1" source="12" target="13">
          <mxGeometry relative="1" as="geometry">
            <Array as="points">
              <mxPoint x="1808" y="377" />
            </Array>
          </mxGeometry>
        </mxCell>
        <mxCell id="25" value="No QR Code" style="curved=1;startArrow=none;endArrow=block;exitX=1;exitY=0.31;entryX=0.41;entryY=1.01;" edge="1" parent="1" source="11" target="14">
          <mxGeometry relative="1" as="geometry">
            <Array as="points">
              <mxPoint x="1494" y="299" />
              <mxPoint x="1585" y="299" />
            </Array>
          </mxGeometry>
        </mxCell>
        <mxCell id="26" value="Invalid QR Code" style="curved=1;startArrow=none;endArrow=block;exitX=1;exitY=0.46;entryX=0.34;entryY=1.01;" edge="1" parent="1" source="11" target="15">
          <mxGeometry relative="1" as="geometry">
            <Array as="points">
              <mxPoint x="1494" y="350" />
              <mxPoint x="1585" y="350" />
            </Array>
          </mxGeometry>
        </mxCell>
        <mxCell id="27" value="Real-Time Data Synced" style="curved=1;startArrow=none;endArrow=block;exitX=1;exitY=0.7;entryX=0.26;entryY=0;" edge="1" parent="1" source="12" target="16">
          <mxGeometry relative="1" as="geometry">
            <Array as="points">
              <mxPoint x="1808" y="438" />
              <mxPoint x="2026" y="438" />
            </Array>
          </mxGeometry>
        </mxCell>
      </root>
    </mxGraphModel>
  </diagram>
</mxfile>
